<svg height='100px' width='100px'  fill="#0073E6" xmlns="http://www.w3.org/2000/svg" viewBox="0 0 24 24" x="0px" y="0px"><title>55</title><path d="M11.06,14.36a.5.5,0,0,0-1,.15,18,18,0,0,1,.22,2.11A4.35,4.35,0,0,1,10,18.84a1.63,1.63,0,0,1-1.51,1,1.68,1.68,0,0,0-1,.37c-1.37,1.32-2.72,1.9-3.8,1.63-1.24-.3-1.54-2-1.61-2.67-.29-2.8.77-5.9,1.74-8.07l0,0a16.8,16.8,0,0,1,2-3.38C6.29,7.09,7.12,6,7.93,6.08,9.36,6.24,9.51,8,9.56,10.23v.28a.5.5,0,1,0,1,0v-.28c0-2.05-.1-4.86-2.52-5.12-1.36-.15-2.42,1.24-3,2a18.23,18.23,0,0,0-2.16,3.58l0,0c-1,2.24-2.14,5.54-1.83,8.6.2,1.93,1.07,3.21,2.37,3.53a3.58,3.58,0,0,0,.8.1,5.94,5.94,0,0,0,3.94-2,1.36,1.36,0,0,1,.44-.1,2.58,2.58,0,0,0,2.27-1.51,5.23,5.23,0,0,0,.44-2.74A19.86,19.86,0,0,0,11.06,14.36Z"></path><path d="M21.14,10.7l0-.07A18.13,18.13,0,0,0,19,7.07c-.61-.8-1.66-2.12-3-2-2.44.27-2.49,3.08-2.53,5.14v.26a.51.51,0,0,0,.49.51.48.48,0,0,0,.51-.49v-.26c0-2.27.19-4,1.63-4.17.78-.08,1.64,1,2.09,1.6a16.84,16.84,0,0,1,2,3.38.08.08,0,0,1,0,0h0A16.76,16.76,0,0,1,22,19.18c-.07.7-.38,2.37-1.61,2.67-1.54.38-3.16-1-3.79-1.63a1.71,1.71,0,0,0-1-.37,1.63,1.63,0,0,1-1.51-1,4.51,4.51,0,0,1-.32-2.2,19.19,19.19,0,0,1,.21-2.08.5.5,0,0,0-1-.14,18.63,18.63,0,0,0-.22,2.18,5.27,5.27,0,0,0,.44,2.72,2.59,2.59,0,0,0,2.28,1.51,1.29,1.29,0,0,1,.44.1,6.14,6.14,0,0,0,3.94,2,3.11,3.11,0,0,0,.79-.1c1.3-.32,2.17-1.6,2.37-3.53A17.81,17.81,0,0,0,21.14,10.7Z"></path><path d="M14,13H15.5a.5.5,0,0,0,0-1H14a1.5,1.5,0,0,1-1.49-1.42s0-.05,0-.08V1.58a.5.5,0,0,0-.5-.5h0a.51.51,0,0,0-.5.5V10.5s0,.06,0,.08A1.49,1.49,0,0,1,10,12H8.48a.5.5,0,0,0,0,1H10a2.5,2.5,0,0,0,2-1A2.51,2.51,0,0,0,14,13Z"></path></svg>