<svg height='100px' width='100px'  fill="#2e3440" xmlns="http://www.w3.org/2000/svg" xmlns:xlink="http://www.w3.org/1999/xlink" viewBox="0 0 100 100" version="1.1" x="0px" y="0px"><title>settings</title><desc>Created with Sketch.</desc><g stroke="none" stroke-width="1" fill="none" fill-rule="evenodd"><path d="M90.6658843,62.3095156 L87.0658843,59.3335888 C84.8831619,57.5180666 83.6824527,54.77766 83.8258843,51.9388614 C83.8258843,51.3076042 83.8258843,50.6312572 83.8258843,50 C83.8258843,49.3687428 83.8258843,48.6923958 83.8258843,48.0611386 C83.6824527,45.22234 84.8831619,42.4819334 87.0658843,40.6664112 L90.6658843,37.6904844 C92.3739941,36.3025442 92.8307212,33.880874 91.7458843,31.9640796 L86.5258843,22.9461195 C85.4194572,21.0632863 83.1249811,20.2462668 81.0808843,21.007258 L76.5808843,22.6304909 C73.9252478,23.6249727 70.9571918,23.3075255 68.5708843,21.7737846 C67.5130265,21.0415005 66.3996317,20.3932368 65.2408843,19.8349232 C62.7087289,18.5337614 60.939896,16.1093028 60.4708843,13.2969021 L59.7058843,8.78792199 C59.3493566,6.58277012 57.4351518,4.97162938 55.2058843,5.00037872 L44.8558843,5.00037872 C42.6266167,4.97162938 40.712412,6.58277012 40.3558843,8.78792199 L39.5908843,13.2969021 C39.1610742,16.0737786 37.4639409,18.4911846 35.0008843,19.8349232 C33.8421368,20.3932368 32.7287421,21.0415005 31.6708843,21.7737846 C29.2845768,23.3075255 26.3165208,23.6249727 23.6608843,22.6304909 L19.1608843,21.007258 C17.1428583,20.2960099 14.9040429,21.106608 13.8058843,22.9461195 L8.58588428,31.9640796 C7.5010474,33.880874 7.95777443,36.3025442 9.66588428,37.6904844 L13.2658843,40.6664112 C15.4486067,42.4819334 16.6493159,45.22234 16.5058843,48.0611386 C16.5058843,48.6923958 16.5058843,49.3687428 16.5058843,50 C16.5058843,50.6312572 16.5058843,51.3076042 16.5058843,51.9388614 C16.6493159,54.77766 15.4486067,57.5180666 13.2658843,59.3335888 L9.66588428,62.3095156 C7.95777443,63.6974558 7.5010474,66.119126 8.58588428,68.0359204 L13.8058843,77.0538805 C14.9123114,78.9367137 17.2067875,79.7537332 19.2508843,78.992742 L23.7508843,77.3695091 C26.4065208,76.3750273 29.3745768,76.6924745 31.7608843,78.2262154 C32.8187421,78.9584995 33.9321368,79.6067632 35.0908843,80.1650768 C37.6230396,81.4662386 39.3918726,83.8906972 39.8608843,86.7030979 L40.6258843,91.212078 C40.982412,93.4172299 42.8966167,95.0283706 45.1258843,94.9996213 L55.4758843,94.9996213 C57.7051518,95.0283706 59.6193566,93.4172299 59.9758843,91.212078 L60.7408843,86.7030979 C61.209896,83.8906972 62.9787289,81.4662386 65.5108843,80.1650768 C66.6696317,79.6067632 67.7830265,78.9584995 68.8408843,78.2262154 C71.2271918,76.6924745 74.1952478,76.3750273 76.8508843,77.3695091 L81.3508843,78.992742 C83.3154167,79.6084572 85.4464611,78.8100418 86.5258843,77.0538805 L91.7458843,68.0359204 C92.8307212,66.119126 92.3739941,63.6974558 90.6658843,62.3095156 Z M50.1658843,63.5269403 C42.7100402,63.5269403 36.6658843,57.4707228 36.6658843,50 C36.6658843,42.5292772 42.7100402,36.4730597 50.1658843,36.4730597 C57.6217284,36.4730597 63.6658843,42.5292772 63.6658843,50 C63.6658843,53.5875676 62.2435669,57.0281978 59.7118258,59.5649912 C57.1800847,62.1017846 53.7463069,63.5269403 50.1658843,63.5269403 Z" fill="#2e3440" fill-rule="nonzero"></path></g></svg>