<svg height='100px' width='100px'  fill="#81a1c1" xmlns="http://www.w3.org/2000/svg" xmlns:xlink="http://www.w3.org/1999/xlink" version="1.1" x="0px" y="0px" viewBox="0 0 128 128" style="enable-background:new 0 0 128 128;" xml:space="preserve"><g><path d="M66.7,27.7c4.2-4.2,4.2-10.9,0-15.1c-4.2-4.2-10.9-4.2-15.1,0l-44,44c-4.2,4.2-4.2,10.9,0,15.1l44,43.8   c4.2,4.2,10.9,4.2,15.1,0c4.2-4.2,4.2-10.9,0-15.1L38,71.6c-4.2-4.2-4.2-10.9,0-15.1L66.7,27.7z"></path><path d="M120.3,27.7c4.2-4.2,4.2-10.9,0-15.1c-4.2-4.2-10.9-4.2-15.1,0l-44,44c-4.2,4.2-4.2,10.9,0,15.1l44,43.8   c4.2,4.2,10.9,4.2,15.1,0c4.2-4.2,4.2-10.9,0-15.1L91.6,71.6c-4.2-4.2-4.2-10.9,0-15.1L120.3,27.7z"></path></g></svg>