<svg height='100px' width='100px'  fill="#0073E6" xmlns="http://www.w3.org/2000/svg" data-name="Layer 1" viewBox="0 0 100 100" x="0px" y="0px"><title>30</title><path d="M53.00488,31H46.99512A6.00156,6.00156,0,0,0,41,36.99463V89.00537A6.00156,6.00156,0,0,0,46.99512,95h6.00976A6.00156,6.00156,0,0,0,59,89.00537V36.99463A6.00156,6.00156,0,0,0,53.00488,31ZM55,89.00537A1.997,1.997,0,0,1,53.00488,91H46.99512A1.997,1.997,0,0,1,45,89.00537V36.99463A1.997,1.997,0,0,1,46.99512,35h6.00976A1.997,1.997,0,0,1,55,36.99463Z"></path><path d="M53.00488,5H46.99512A6.00156,6.00156,0,0,0,41,10.99463v6.01074A6.00156,6.00156,0,0,0,46.99512,23h6.00976A6.00156,6.00156,0,0,0,59,17.00537V10.99463A6.00156,6.00156,0,0,0,53.00488,5ZM55,17.00537A1.997,1.997,0,0,1,53.00488,19H46.99512A1.997,1.997,0,0,1,45,17.00537V10.99463A1.997,1.997,0,0,1,46.99512,9h6.00976A1.997,1.997,0,0,1,55,10.99463Z"></path></svg>