<svg height='100px' width='100px'  fill="#0073E6" xmlns="http://www.w3.org/2000/svg" xmlns:xlink="http://www.w3.org/1999/xlink" version="1.1" x="0px" y="0px" viewBox="0 0 64 64" enable-background="new 0 0 64 64" xml:space="preserve"><metadata><?xpacket begin="&#65279;" id="W5M0MpCehiHzreSzNTczkc9d"?><x:xmpmeta xmlns:x="adobe:ns:meta/" x:xmptk="Adobe XMP Core 5.3-c011 66.145661, 2012/02/06-14:56:27        "></x:xmpmeta><?xpacket end="w"?></metadata><g><path d="M54,18v-8c0-1.104-0.896-2-2-2H38c-3.28,0-6.008,1.455-8,3.028V6c0-3.309-2.691-6-6-6H12c-1.104,0-2,0.896-2,2v8   c0,1.104,0.896,2,2,2h6v4c0,0.592-0.812,1.195-2.135,2.132C13.529,19.783,10,22.278,10,28c0,2.19,0.53,3.488,0.998,4.634   C11.513,33.896,12,35.09,12,38c0,17.069,11.067,26,22,26c7.412,0,12-7.267,12-14c0-1.752,0.289-2.022,0.988-2.677   C48.636,45.779,50,44.013,50,38v-5.172l3.414-3.414C53.789,29.039,54,28.53,54,28c0-2.2-0.587-5.441-2.318-8H52   C53.104,20,54,19.104,54,18z M18.174,21.397C19.967,20.13,22,18.692,22,16v-6c0-1.104-0.896-2-2-2h-6V4h10c1.103,0,2,0.897,2,2   v9.437c-1.229,2.048-1.89,4.338-2.579,6.753c-1.256,4.402-2.556,8.934-7.669,12.462c-0.261-1.585-0.684-2.629-1.051-3.529   C14.294,30.125,14,29.405,14,28C14,24.349,16.027,22.915,18.174,21.397z M44,20c4.84,0,5.776,5.19,5.957,7.215l-3.371,3.371   C46.211,30.961,46,31.47,46,32v4h-2c-4.411,0-8-3.589-8-8S39.589,20,44,20z M50,16h-6c-6.617,0-12,5.383-12,12s5.383,12,12,12   h1.933c-0.22,3.024-0.958,3.729-1.679,4.403C43.021,45.558,42,46.776,42,50c0,4.81-3.059,10-8,10   c-8.438,0-17.478-6.547-17.955-20.834c7.945-4.451,9.762-10.762,11.223-15.88c0.662-2.319,1.287-4.511,2.394-6.173   C29.706,17.049,33.176,12,38,12h12V16z"></path></g></svg>