<svg height='100px' width='100px'  fill="#81a1c1" xmlns="http://www.w3.org/2000/svg" xmlns:xlink="http://www.w3.org/1999/xlink" version="1.1" x="0px" y="0px" viewBox="0 0 128 128" style="enable-background:new 0 0 128 128;" xml:space="preserve"><g><path d="M76.2,114.7l43.3-43.2c4.1-4.1,4.1-10.8,0-14.9L76.2,13.3c-4.1-4.1-10.8-4.1-14.9,0c-4.1,4.1-4.1,10.8,0,14.9l28.3,28.4   c4.1,4.1,4.1,10.8,0,14.9L61.3,99.8c-4.1,4.1-4.1,10.8,0,14.9C65.4,118.8,72.1,118.8,76.2,114.7z"></path><path d="M8.5,99.8c-4.1,4.1-4.1,10.8,0,14.9c4.1,4.1,10.8,4.1,14.9,0l43.3-43.2c4.1-4.1,4.1-10.8,0-14.9L23.4,13.3   c-4.1-4.1-10.8-4.1-14.9,0s-4.1,10.8,0,14.9l28.3,28.4c4.1,4.1,4.1,10.8,0,14.9L8.5,99.8z"></path></g></svg>